# xmcd CD database file
#
# Track frame offsets:
#	150
#	14834
#	33137
#	47504
#	60311
#	82145
#	95218
#
# Disc length: 1458 seconds
#
# Revision: 0
# Processed by: cddbd v1.5.2PL0 Copyright (c) Steve Scherf et al.
# Submitted via: CDex 1.51
#
DISCID=5505b007
DTITLE=Burns and Poe - Burns and Poe (Disk 1)
DYEAR=2011
DGENRE=Country
TTITLE0=Don't Get No Better Than That
TTITLE1=How Long Is Long Enough
TTITLE2=Ain't It Amazing
TTITLE3=Big Truck
TTITLE4=Is This Lonely
TTITLE5=Life's Too Short
TTITLE6=Gone As All Get Out
EXTD=YEAR: 2011
EXTT0=
EXTT1=
EXTT2=
EXTT3=
EXTT4=
EXTT5=
EXTT6=
PLAYORDER=
